<svg width="20" height="16" viewBox="0 0 20 16" fill="none" xmlns="http://www.w3.org/2000/svg">
<path d="M19.5759 2.1537C18.8569 2.46592 18.0961 2.67161 17.3175 2.76428C18.1357 2.28554 18.751 1.52498 19.048 0.625233C18.2745 1.07722 17.4296 1.39436 16.5496 1.56306C16.179 1.17497 15.7333 0.866237 15.2396 0.65562C14.7459 0.445004 14.2146 0.336906 13.6778 0.337897C11.5044 0.337897 9.74564 2.06989 9.74564 4.20495C9.7441 4.50193 9.77815 4.79802 9.84708 5.08691C8.28864 5.0139 6.76261 4.61663 5.36663 3.92051C3.97064 3.22439 2.73543 2.24475 1.74003 1.04426C1.39081 1.63255 1.20613 2.30377 1.20528 2.98777C1.20528 4.32866 1.90536 5.51392 2.96247 6.20832C2.33616 6.19346 1.72269 6.02781 1.17413 5.72543V5.77332C1.17413 7.64898 2.53196 9.20937 4.32909 9.56455C3.99114 9.65458 3.64289 9.70019 3.29314 9.70024C3.04497 9.70067 2.79736 9.67661 2.55393 9.6284C3.05353 11.1648 4.50761 12.2823 6.23005 12.3142C4.83044 13.3921 3.11208 13.9746 1.34506 13.9704C1.0314 13.9699 0.718044 13.9512 0.406555 13.9145C2.20416 15.0615 4.29373 15.6682 6.42654 15.6624C13.6694 15.6624 17.6263 9.76808 17.6263 4.65591C17.6263 4.4883 17.6219 4.32068 17.6139 4.15706C18.3819 3.61115 19.0463 2.93274 19.5759 2.1537Z" fill="white"/>
</svg>
