<svg width="238" height="36" viewBox="0 0 238 36" fill="none" xmlns="http://www.w3.org/2000/svg">
<path d="M45.5604 28C45.3404 28 45.1604 27.93 45.0204 27.79C44.8804 27.65 44.8104 27.47 44.8104 27.25V20.65L37.7904 7.96C37.7704 7.9 37.7504 7.85 37.7304 7.81C37.7104 7.75 37.7004 7.69 37.7004 7.63C37.7004 7.47 37.7604 7.33 37.8804 7.21C38.0204 7.07 38.1704 7 38.3304 7H41.5104C41.7904 7 42.0104 7.07 42.1704 7.21C42.3304 7.35 42.4404 7.48 42.5004 7.6L47.2104 15.85L51.9204 7.6C51.9804 7.48 52.0904 7.35 52.2504 7.21C52.4104 7.07 52.6304 7 52.9104 7H56.0904C56.2504 7 56.3904 7.07 56.5104 7.21C56.6504 7.33 56.7204 7.47 56.7204 7.63C56.7204 7.69 56.7104 7.75 56.6904 7.81C56.6704 7.85 56.6504 7.9 56.6304 7.96L49.6104 20.65V27.25C49.6104 27.47 49.5404 27.65 49.4004 27.79C49.2604 27.93 49.0804 28 48.8604 28H45.5604ZM63.5293 28.3C61.2293 28.3 59.3993 27.66 58.0393 26.38C56.6993 25.1 55.9893 23.24 55.9093 20.8C55.9093 20.64 55.9093 20.43 55.9093 20.17C55.9093 19.89 55.9093 19.67 55.9093 19.51C55.9893 17.97 56.3393 16.65 56.9593 15.55C57.5793 14.43 58.4493 13.58 59.5693 13C60.6893 12.4 61.9993 12.1 63.4993 12.1C65.1793 12.1 66.5793 12.45 67.6993 13.15C68.8393 13.83 69.6893 14.77 70.2493 15.97C70.8293 17.15 71.1193 18.51 71.1193 20.05V20.74C71.1193 20.94 71.0393 21.11 70.8793 21.25C70.7393 21.39 70.5693 21.46 70.3693 21.46H60.5593C60.5593 21.48 60.5593 21.52 60.5593 21.58C60.5593 21.62 60.5593 21.66 60.5593 21.7C60.5793 22.34 60.6993 22.93 60.9193 23.47C61.1593 23.99 61.4893 24.41 61.9093 24.73C62.3493 25.05 62.8693 25.21 63.4693 25.21C63.9693 25.21 64.3793 25.14 64.6993 25C65.0193 24.86 65.2793 24.69 65.4793 24.49C65.6993 24.29 65.8593 24.12 65.9593 23.98C66.1393 23.78 66.2793 23.66 66.3793 23.62C66.4993 23.56 66.6793 23.53 66.9193 23.53H70.0393C70.2393 23.53 70.3993 23.59 70.5193 23.71C70.6593 23.81 70.7193 23.96 70.6993 24.16C70.6793 24.48 70.5093 24.88 70.1893 25.36C69.8893 25.82 69.4393 26.28 68.8393 26.74C68.2393 27.18 67.4893 27.55 66.5893 27.85C65.7093 28.15 64.6893 28.3 63.5293 28.3ZM60.5593 18.73H66.4393V18.67C66.4393 17.95 66.3193 17.33 66.0793 16.81C65.8593 16.27 65.5293 15.85 65.0893 15.55C64.6493 15.25 64.1193 15.1 63.4993 15.1C62.8793 15.1 62.3493 15.25 61.9093 15.55C61.4693 15.85 61.1293 16.27 60.8893 16.81C60.6693 17.33 60.5593 17.95 60.5593 18.67V18.73ZM74.8381 28C74.6381 28 74.4681 27.93 74.3281 27.79C74.1881 27.65 74.1181 27.47 74.1181 27.25V13.15C74.1181 12.93 74.1881 12.75 74.3281 12.61C74.4681 12.47 74.6381 12.4 74.8381 12.4H77.6281C77.8281 12.4 77.9981 12.47 78.1381 12.61C78.2981 12.75 78.3781 12.93 78.3781 13.15V14.17C78.7781 13.61 79.3281 13.13 80.0281 12.73C80.7481 12.33 81.5981 12.12 82.5781 12.1C84.8981 12.06 86.4881 12.94 87.3481 14.74C87.8081 13.96 88.4681 13.33 89.3281 12.85C90.2081 12.35 91.1681 12.1 92.2081 12.1C93.2481 12.1 94.1881 12.34 95.0281 12.82C95.8681 13.28 96.5281 14 97.0081 14.98C97.5081 15.94 97.7581 17.18 97.7581 18.7V27.25C97.7581 27.47 97.6881 27.65 97.5481 27.79C97.4081 27.93 97.2381 28 97.0381 28H94.0681C93.8681 28 93.6981 27.93 93.5581 27.79C93.4181 27.65 93.3481 27.47 93.3481 27.25V18.94C93.3481 18.12 93.2281 17.48 92.9881 17.02C92.7481 16.54 92.4281 16.2 92.0281 16C91.6481 15.8 91.2181 15.7 90.7381 15.7C90.3181 15.7 89.9081 15.8 89.5081 16C89.1281 16.2 88.8081 16.54 88.5481 17.02C88.3081 17.48 88.1881 18.12 88.1881 18.94V27.25C88.1881 27.47 88.1181 27.65 87.9781 27.79C87.8381 27.93 87.6581 28 87.4381 28H84.4981C84.2781 28 84.0981 27.93 83.9581 27.79C83.8181 27.65 83.7481 27.47 83.7481 27.25V18.94C83.7481 18.12 83.6281 17.48 83.3881 17.02C83.1481 16.54 82.8281 16.2 82.4281 16C82.0481 15.8 81.6281 15.7 81.1681 15.7C80.7481 15.7 80.3381 15.81 79.9381 16.03C79.5381 16.23 79.2081 16.56 78.9481 17.02C78.7081 17.48 78.5881 18.11 78.5881 18.91V27.25C78.5881 27.47 78.5181 27.65 78.3781 27.79C78.2381 27.93 78.0681 28 77.8681 28H74.8381ZM108.353 28.3C106.053 28.3 104.223 27.66 102.863 26.38C101.523 25.1 100.813 23.24 100.733 20.8C100.733 20.64 100.733 20.43 100.733 20.17C100.733 19.89 100.733 19.67 100.733 19.51C100.813 17.97 101.163 16.65 101.783 15.55C102.403 14.43 103.273 13.58 104.393 13C105.513 12.4 106.823 12.1 108.323 12.1C110.003 12.1 111.403 12.45 112.523 13.15C113.663 13.83 114.513 14.77 115.073 15.97C115.653 17.15 115.943 18.51 115.943 20.05V20.74C115.943 20.94 115.863 21.11 115.703 21.25C115.563 21.39 115.393 21.46 115.193 21.46H105.383C105.383 21.48 105.383 21.52 105.383 21.58C105.383 21.62 105.383 21.66 105.383 21.7C105.403 22.34 105.523 22.93 105.743 23.47C105.983 23.99 106.313 24.41 106.733 24.73C107.173 25.05 107.693 25.21 108.293 25.21C108.793 25.21 109.203 25.14 109.523 25C109.843 24.86 110.103 24.69 110.303 24.49C110.523 24.29 110.683 24.12 110.783 23.98C110.963 23.78 111.103 23.66 111.203 23.62C111.323 23.56 111.503 23.53 111.743 23.53H114.863C115.063 23.53 115.223 23.59 115.343 23.71C115.483 23.81 115.543 23.96 115.523 24.16C115.503 24.48 115.333 24.88 115.013 25.36C114.713 25.82 114.263 26.28 113.663 26.74C113.063 27.18 112.313 27.55 111.413 27.85C110.533 28.15 109.513 28.3 108.353 28.3ZM105.383 18.73H111.263V18.67C111.263 17.95 111.143 17.33 110.903 16.81C110.683 16.27 110.353 15.85 109.913 15.55C109.473 15.25 108.943 15.1 108.323 15.1C107.703 15.1 107.173 15.25 106.733 15.55C106.293 15.85 105.953 16.27 105.713 16.81C105.493 17.33 105.383 17.95 105.383 18.67V18.73ZM119.662 28C119.462 28 119.292 27.93 119.152 27.79C119.012 27.65 118.942 27.47 118.942 27.25V13.15C118.942 12.93 119.012 12.75 119.152 12.61C119.292 12.47 119.462 12.4 119.662 12.4H122.602C122.822 12.4 123.002 12.47 123.142 12.61C123.282 12.75 123.352 12.93 123.352 13.15V14.32C123.872 13.68 124.542 13.15 125.362 12.73C126.182 12.31 127.182 12.1 128.362 12.1C129.542 12.1 130.572 12.37 131.452 12.91C132.352 13.43 133.052 14.2 133.552 15.22C134.072 16.22 134.332 17.44 134.332 18.88V27.25C134.332 27.47 134.252 27.65 134.092 27.79C133.952 27.93 133.782 28 133.582 28H130.402C130.182 28 130.002 27.93 129.862 27.79C129.722 27.65 129.652 27.47 129.652 27.25V19.06C129.652 18 129.392 17.18 128.872 16.6C128.372 16 127.632 15.7 126.652 15.7C125.712 15.7 124.962 16 124.402 16.6C123.842 17.18 123.562 18 123.562 19.06V27.25C123.562 27.47 123.492 27.65 123.352 27.79C123.212 27.93 123.042 28 122.842 28H119.662ZM159.839 28.3C157.959 28.3 156.359 27.99 155.039 27.37C153.739 26.73 152.729 25.81 152.009 24.61C151.289 23.39 150.889 21.91 150.809 20.17C150.789 19.35 150.779 18.47 150.779 17.53C150.779 16.59 150.789 15.69 150.809 14.83C150.889 13.11 151.289 11.65 152.009 10.45C152.749 9.23 153.779 8.3 155.099 7.66C156.419 7.02 157.999 6.7 159.839 6.7C161.179 6.7 162.399 6.87 163.499 7.21C164.599 7.55 165.549 8.04 166.349 8.68C167.149 9.32 167.769 10.07 168.209 10.93C168.649 11.79 168.889 12.75 168.929 13.81C168.929 13.99 168.859 14.14 168.719 14.26C168.599 14.38 168.449 14.44 168.269 14.44H164.849C164.609 14.44 164.419 14.38 164.279 14.26C164.139 14.14 164.029 13.94 163.949 13.66C163.649 12.48 163.149 11.67 162.449 11.23C161.749 10.79 160.879 10.57 159.839 10.57C158.599 10.57 157.619 10.91 156.899 11.59C156.179 12.27 155.789 13.4 155.729 14.98C155.669 16.62 155.669 18.3 155.729 20.02C155.789 21.6 156.179 22.73 156.899 23.41C157.619 24.09 158.599 24.43 159.839 24.43C160.879 24.43 161.749 24.21 162.449 23.77C163.169 23.31 163.669 22.5 163.949 21.34C164.029 21.04 164.139 20.84 164.279 20.74C164.419 20.62 164.609 20.56 164.849 20.56H168.269C168.449 20.56 168.599 20.62 168.719 20.74C168.859 20.86 168.929 21.01 168.929 21.19C168.889 22.25 168.649 23.21 168.209 24.07C167.769 24.93 167.149 25.68 166.349 26.32C165.549 26.96 164.599 27.45 163.499 27.79C162.399 28.13 161.179 28.3 159.839 28.3ZM176.56 28.3C175.5 28.3 174.55 28.1 173.71 27.7C172.87 27.28 172.2 26.72 171.7 26.02C171.2 25.32 170.95 24.54 170.95 23.68C170.95 22.26 171.52 21.14 172.66 20.32C173.82 19.5 175.34 18.94 177.22 18.64L181.15 18.07V17.53C181.15 16.75 180.97 16.15 180.61 15.73C180.25 15.31 179.62 15.1 178.72 15.1C178.06 15.1 177.53 15.23 177.13 15.49C176.73 15.75 176.42 16.09 176.2 16.51C176.04 16.77 175.81 16.9 175.51 16.9H172.66C172.44 16.9 172.27 16.84 172.15 16.72C172.03 16.58 171.98 16.42 172 16.24C172 15.9 172.13 15.5 172.39 15.04C172.65 14.58 173.05 14.13 173.59 13.69C174.13 13.23 174.82 12.85 175.66 12.55C176.5 12.25 177.53 12.1 178.75 12.1C180.01 12.1 181.09 12.25 181.99 12.55C182.89 12.85 183.61 13.27 184.15 13.81C184.69 14.35 185.09 14.98 185.35 15.7C185.61 16.4 185.74 17.16 185.74 17.98V27.25C185.74 27.47 185.67 27.65 185.53 27.79C185.39 27.93 185.21 28 184.99 28H182.05C181.85 28 181.68 27.93 181.54 27.79C181.4 27.65 181.33 27.47 181.33 27.25V26.14C181.07 26.52 180.72 26.88 180.28 27.22C179.84 27.54 179.31 27.8 178.69 28C178.09 28.2 177.38 28.3 176.56 28.3ZM177.76 25.18C178.42 25.18 179.01 25.04 179.53 24.76C180.05 24.48 180.46 24.05 180.76 23.47C181.06 22.89 181.21 22.16 181.21 21.28V20.77L178.42 21.22C177.34 21.4 176.55 21.67 176.05 22.03C175.55 22.39 175.3 22.83 175.3 23.35C175.3 23.73 175.41 24.06 175.63 24.34C175.87 24.62 176.18 24.83 176.56 24.97C176.94 25.11 177.34 25.18 177.76 25.18ZM190.092 28C189.892 28 189.722 27.93 189.582 27.79C189.442 27.65 189.372 27.47 189.372 27.25V13.15C189.372 12.95 189.442 12.78 189.582 12.64C189.722 12.48 189.892 12.4 190.092 12.4H193.032C193.232 12.4 193.402 12.48 193.542 12.64C193.702 12.78 193.782 12.95 193.782 13.15V14.35C194.282 13.73 194.892 13.25 195.612 12.91C196.352 12.57 197.202 12.4 198.162 12.4H199.452C199.652 12.4 199.822 12.47 199.962 12.61C200.102 12.75 200.172 12.93 200.172 13.15V15.73C200.172 15.95 200.102 16.13 199.962 16.27C199.822 16.41 199.652 16.48 199.452 16.48H196.812C195.932 16.48 195.242 16.73 194.742 17.23C194.242 17.71 193.992 18.4 193.992 19.3V27.25C193.992 27.47 193.922 27.65 193.782 27.79C193.642 27.93 193.462 28 193.242 28H190.092ZM209.553 34.6C208.073 34.6 206.843 34.4 205.863 34C204.883 33.62 204.103 33.15 203.523 32.59C202.963 32.05 202.563 31.51 202.323 30.97C202.083 30.43 201.953 30.01 201.933 29.71C201.913 29.49 201.983 29.31 202.143 29.17C202.303 29.03 202.483 28.96 202.683 28.96H205.893C206.073 28.96 206.223 29 206.343 29.08C206.483 29.18 206.593 29.34 206.673 29.56C206.773 29.8 206.913 30.05 207.093 30.31C207.273 30.59 207.543 30.82 207.903 31C208.283 31.18 208.783 31.27 209.403 31.27C210.103 31.27 210.683 31.17 211.143 30.97C211.603 30.77 211.943 30.43 212.163 29.95C212.403 29.47 212.523 28.82 212.523 28V25.99C212.043 26.51 211.433 26.94 210.693 27.28C209.973 27.62 209.083 27.79 208.023 27.79C206.983 27.79 206.063 27.63 205.263 27.31C204.483 26.97 203.833 26.5 203.313 25.9C202.793 25.28 202.393 24.54 202.113 23.68C201.833 22.82 201.673 21.85 201.633 20.77C201.613 20.23 201.613 19.7 201.633 19.18C201.673 18.14 201.833 17.19 202.113 16.33C202.393 15.47 202.793 14.73 203.313 14.11C203.833 13.47 204.483 12.98 205.263 12.64C206.063 12.28 206.983 12.1 208.023 12.1C209.123 12.1 210.063 12.31 210.843 12.73C211.623 13.15 212.263 13.67 212.763 14.29V13.15C212.763 12.95 212.833 12.78 212.973 12.64C213.113 12.48 213.283 12.4 213.483 12.4H216.423C216.623 12.4 216.793 12.48 216.933 12.64C217.093 12.78 217.173 12.95 217.173 13.15L217.203 27.58C217.203 29.08 216.913 30.35 216.333 31.39C215.753 32.43 214.893 33.22 213.753 33.76C212.633 34.32 211.233 34.6 209.553 34.6ZM209.403 24.28C210.123 24.28 210.703 24.12 211.143 23.8C211.603 23.46 211.943 23.04 212.163 22.54C212.383 22.02 212.503 21.48 212.523 20.92C212.543 20.7 212.553 20.39 212.553 19.99C212.553 19.57 212.543 19.25 212.523 19.03C212.503 18.47 212.383 17.94 212.163 17.44C211.943 16.92 211.603 16.5 211.143 16.18C210.703 15.86 210.123 15.7 209.403 15.7C208.643 15.7 208.043 15.87 207.603 16.21C207.163 16.53 206.843 16.96 206.643 17.5C206.443 18.04 206.323 18.63 206.283 19.27C206.263 19.75 206.263 20.22 206.283 20.68C206.323 21.34 206.443 21.94 206.643 22.48C206.843 23.02 207.163 23.46 207.603 23.8C208.043 24.12 208.643 24.28 209.403 24.28ZM228.123 28.3C226.463 28.3 225.073 28.03 223.953 27.49C222.833 26.93 221.973 26.14 221.373 25.12C220.793 24.1 220.473 22.91 220.413 21.55C220.393 21.15 220.383 20.7 220.383 20.2C220.383 19.68 220.393 19.23 220.413 18.85C220.473 17.47 220.813 16.28 221.433 15.28C222.053 14.26 222.923 13.48 224.043 12.94C225.163 12.38 226.523 12.1 228.123 12.1C229.703 12.1 231.053 12.38 232.173 12.94C233.293 13.48 234.163 14.26 234.783 15.28C235.403 16.28 235.743 17.47 235.803 18.85C235.843 19.23 235.863 19.68 235.863 20.2C235.863 20.7 235.843 21.15 235.803 21.55C235.743 22.91 235.413 24.1 234.813 25.12C234.233 26.14 233.383 26.93 232.263 27.49C231.143 28.03 229.763 28.3 228.123 28.3ZM228.123 25C229.103 25 229.843 24.7 230.343 24.1C230.843 23.48 231.113 22.58 231.153 21.4C231.173 21.1 231.183 20.7 231.183 20.2C231.183 19.7 231.173 19.3 231.153 19C231.113 17.84 230.843 16.95 230.343 16.33C229.843 15.71 229.103 15.4 228.123 15.4C227.143 15.4 226.393 15.71 225.873 16.33C225.373 16.95 225.103 17.84 225.063 19C225.043 19.3 225.033 19.7 225.033 20.2C225.033 20.7 225.043 21.1 225.063 21.4C225.103 22.58 225.373 23.48 225.873 24.1C226.393 24.7 227.143 25 228.123 25Z" fill="white"/>
<rect y="7.89111" width="9.78261" height="9.78261" transform="rotate(-30 0 7.89111)" fill="#FFB82B"/>
<rect x="4.13043" y="18" width="10" height="10" fill="#FFB82B"/>
<rect x="18.1304" y="5" width="10" height="10" fill="#FFB82B"/>
<rect x="18.1304" y="18" width="10" height="10" fill="#FFB82B"/>
</svg>
