<svg width="57" height="47" viewBox="0 0 57 47" fill="none" xmlns="http://www.w3.org/2000/svg">
<path d="M2.36719 45.6086H54.7481" stroke="#141414" stroke-width="2" stroke-linecap="round" stroke-linejoin="round"/>
<path d="M32.7481 45.6086V3.52169C32.7481 3.01432 32.5431 2.52773 32.1783 2.16896C31.8134 1.8102 31.3185 1.60864 30.8025 1.60864H7.45559C6.93959 1.60864 6.44472 1.8102 6.07986 2.16896C5.71499 2.52773 5.51001 3.01432 5.51001 3.52169V45.6086" stroke="#141414" stroke-width="2" stroke-linecap="round" stroke-linejoin="round"/>
<path d="M32.748 14.1802H48.6052C50.262 14.1802 51.6052 15.5233 51.6052 17.1802V44.5611H32.748V14.1802Z" fill="#FFD550" stroke="#141414" stroke-width="2" stroke-linecap="round" stroke-linejoin="round"/>
<path d="M13.8911 11.0371H21.2244" stroke="#141414" stroke-width="2" stroke-linecap="round" stroke-linejoin="round"/>
<path d="M1.31958 41.4182L1.31958 26.7515" stroke="#141414" stroke-width="2" stroke-linecap="round" stroke-linejoin="round"/>
<path d="M55.7957 30.9417L55.7957 16.275" stroke="#141414" stroke-width="2" stroke-linecap="round" stroke-linejoin="round"/>
<path d="M35.8911 9.9895L43.2244 9.9895" stroke="#141414" stroke-width="2" stroke-linecap="round" stroke-linejoin="round"/>
<path d="M17.0339 26.7512H24.3673" stroke="#141414" stroke-width="2" stroke-linecap="round" stroke-linejoin="round"/>
<path d="M13.8911 36.1801H21.2244" stroke="#141414" stroke-width="2" stroke-linecap="round" stroke-linejoin="round"/>
<path d="M40.0815 36.1801H44.272" stroke="#141414" stroke-width="2" stroke-linecap="round" stroke-linejoin="round"/>
<path d="M40.0815 26.7512H44.272" stroke="#141414" stroke-width="2" stroke-linecap="round" stroke-linejoin="round"/>
</svg>
