<svg width="77" height="66" viewBox="0 0 77 66" fill="none" xmlns="http://www.w3.org/2000/svg">
<path d="M18.1001 55.4348H53.9697" stroke="#1C1F35" stroke-width="2" stroke-linecap="round" stroke-linejoin="round"/>
<path d="M35.1289 40.4766L50.6509 31.1317" stroke="#1C1F35" stroke-width="2" stroke-linecap="round" stroke-linejoin="round"/>
<path d="M10.4912 37.8877L16.5064 43.9029" stroke="#1C1F35" stroke-width="2" stroke-linecap="round" stroke-linejoin="round"/>
<path d="M1.79565 35.7139L7.81086 41.7291" stroke="#1C1F35" stroke-width="2" stroke-linecap="round" stroke-linejoin="round"/>
<path d="M16.5639 35.4434L26.0214 44.5155C27.2824 45.7266 28.8914 46.4883 30.6089 46.6874C32.3264 46.8865 34.0608 46.5124 35.5541 45.6206L73.5347 23.0045L68.8687 17.1449C67.6549 15.6262 65.951 14.6023 64.0647 14.2582C62.1784 13.9141 60.2342 14.2726 58.5833 15.2688L47.445 21.9765L32.3933 16.8365L28.2541 18.6612C27.9444 18.7971 27.6731 19.0108 27.4652 19.2824C27.2573 19.554 27.1196 19.8749 27.0646 20.2154C27.0096 20.556 27.0392 20.9052 27.1506 21.2309C27.262 21.5567 27.4517 21.8484 27.7022 22.0793L35.4036 29.1725L28.3795 33.2845L21.3553 30.2005L17.1408 32.0509C16.8342 32.1859 16.5653 32.397 16.3584 32.6652C16.1515 32.9335 16.0131 33.2503 15.9558 33.5871C15.8985 33.9239 15.9241 34.27 16.0303 34.5941C16.1365 34.9183 16.3199 35.2101 16.5639 35.4434V35.4434Z" stroke="#1C1F35" stroke-width="2" stroke-linecap="round" stroke-linejoin="round"/>
<path d="M69.7304 18.4781C63.7004 23.2141 57.748 23.8094 53.426 18.4781L56.822 16.2707C61.042 13.5277 66.6616 14.4886 69.7304 18.4781Z" fill="#FFD550" stroke="#1C1F35" stroke-width="2"/>
</svg>
