<svg width="52" height="57" viewBox="0 0 52 57" fill="none" xmlns="http://www.w3.org/2000/svg">
<path d="M25.6597 8.0812V1.91626" stroke="#1C1F35" stroke-width="2" stroke-linecap="round" stroke-linejoin="round"/>
<path d="M50.3195 36.851C46.5692 49.9515 29.2046 54.5238 26.1221 55.243C25.8187 55.3202 25.5008 55.3202 25.1974 55.243C22.1149 54.5238 4.75034 49.9515 1 36.851V28.0659C0.999964 27.6332 1.13652 27.2115 1.39021 26.861C1.64389 26.5105 2.00176 26.2489 2.4128 26.1137L25.0176 18.5617C25.436 18.4329 25.8835 18.4329 26.3019 18.5617L48.9067 26.1137C49.3178 26.2489 49.6756 26.5105 49.9293 26.861C50.183 27.2115 50.3195 27.6332 50.3195 28.0659V36.851Z" stroke="#1C1F35" stroke-width="2" stroke-linecap="round" stroke-linejoin="round"/>
<path d="M26.1276 48.5814C23.6888 48.0199 9.95013 44.4503 6.98291 34.2229" stroke="#1C1F35" stroke-width="2" stroke-linecap="round" stroke-linejoin="round"/>
<path d="M6.98291 10.8987V24.052L25.5293 17.471L44.0757 24.052V10.8987C44.0757 9.24183 42.7326 7.89868 41.0757 7.89868H9.98291C8.32606 7.89868 6.98291 9.24183 6.98291 10.8987Z" fill="#FFD550" stroke="#1C1F35" stroke-width="2"/>
<path d="M25.6597 38.906V18.459" stroke="#1C1F35" stroke-width="2" stroke-linecap="round" stroke-linejoin="round"/>
<path d="M30.9138 37.8126L30.9138 29.4368" stroke="#1C1F35" stroke-width="2" stroke-linecap="round" stroke-linejoin="round"/>
<path d="M11.7688 18.6675V12.6848" stroke="#1C1F35" stroke-width="2" stroke-linecap="round" stroke-linejoin="round"/>
<path d="M48.8616 21.0609V10.292" stroke="#1C1F35" stroke-width="2" stroke-linecap="round" stroke-linejoin="round"/>
</svg>
