<svg width="63" height="63" viewBox="0 0 63 63" fill="none" xmlns="http://www.w3.org/2000/svg">
<path d="M42.8672 29.3945V19.4302H48.464C51.2985 19.4302 53.8533 21.1396 54.9346 23.7598L56.975 28.7037C57.1108 29.0329 56.8689 29.3945 56.5128 29.3945H42.8672Z" fill="#FFD550" stroke="#1C1F35" stroke-width="2"/>
<path d="M5.22412 36.0372H42.867" stroke="#1C1F35" stroke-width="2" stroke-linecap="round" stroke-linejoin="round"/>
<path d="M46.1885 53.7518C49.8573 53.7518 52.8314 50.7777 52.8314 47.1089C52.8314 43.4402 49.8573 40.4661 46.1885 40.4661C42.5198 40.4661 39.5457 43.4402 39.5457 47.1089C39.5457 50.7777 42.5198 53.7518 46.1885 53.7518Z" stroke="#1C1F35" stroke-width="2" stroke-linecap="round" stroke-linejoin="round"/>
<path d="M17.4029 53.7518C21.0716 53.7518 24.0457 50.7777 24.0457 47.1089C24.0457 43.4402 21.0716 40.4661 17.4029 40.4661C13.7341 40.4661 10.76 43.4402 10.76 47.1089C10.76 50.7777 13.7341 53.7518 17.4029 53.7518Z" fill="#FFD550" stroke="#1C1F35" stroke-width="2" stroke-linecap="round" stroke-linejoin="round"/>
<path d="M39.5457 46.0012H24.0457" stroke="#1C1F35" stroke-width="2" stroke-linecap="round" stroke-linejoin="round"/>
<path d="M10.7045 46.0012H7.10626C6.60709 46.0012 6.12836 45.7971 5.77539 45.4337C5.42242 45.0704 5.22412 44.5776 5.22412 44.0637V16.9387C5.22412 16.4249 5.42242 15.9321 5.77539 15.5687C6.12836 15.2053 6.60709 15.0012 7.10626 15.0012H42.867V40.9637" stroke="#1C1F35" stroke-width="2" stroke-linecap="round" stroke-linejoin="round"/>
<path d="M42.8672 29.3948H58.3672V44.1567C58.3672 44.6461 58.1631 45.1154 57.7997 45.4615C57.4364 45.8075 56.9435 46.0019 56.4297 46.0019H52.6931" stroke="#1C1F35" stroke-width="2" stroke-linecap="round" stroke-linejoin="round"/>
<path d="M9.65283 28.7034L9.65283 19.4302" stroke="#1C1F35" stroke-width="2" stroke-linecap="round" stroke-linejoin="round"/>
<path d="M29.5813 31.6086L38.8545 31.6086" stroke="#1C1F35" stroke-width="2" stroke-linecap="round" stroke-linejoin="round"/>
<path d="M29.5814 50.3235L32.9028 50.3235" stroke="#1C1F35" stroke-width="2" stroke-linecap="round" stroke-linejoin="round"/>
</svg>
